<?xml version="1.0" encoding="UTF-8"?><svg id="Layer_2" xmlns="http://www.w3.org/2000/svg" viewBox="0 0 39.72 28.91"><defs><style>.cls-1{fill:#fff;}</style></defs><g id="arte"><path class="cls-1" d="m39.72,4.7v20.56c0,2.06-1.65,3.64-3.64,3.64H3.64c-2,0-3.64-1.59-3.64-3.64V4.29l14.98,14.92c1.41,1.41,3.23,2.11,5.11,2.11s3.7-.71,5.11-2.11l14.51-14.51Z"/><path class="cls-1" d="m17.04,17.1L1,1.12C1.53.65,2.12.24,2.88.06h.06c.23-.06.47-.06.71-.06h32.49c.47,0,.88.12,1.29.29h.06c.59.24,1.12.65,1.41,1.12l-15.75,15.69c-1.7,1.7-4.41,1.7-6.11,0Z"/></g></svg>