<!-- Generator: Adobe Illustrator 21.0.0, SVG Export Plug-In  -->
<svg version="1.1"
	 xmlns="http://www.w3.org/2000/svg" xmlns:xlink="http://www.w3.org/1999/xlink" xmlns:a="http://ns.adobe.com/AdobeSVGViewerExtensions/3.0/"
	 x="0px" y="0px" width="265.557px" height="68.207px" viewBox="0 0 265.557 68.207"
	 style="enable-background:new 0 0 265.557 68.207;" xml:space="preserve">
<style type="text/css">
	.st0{fill:#F6F5F2;}
</style>
<defs>
</defs>
<g id="XMLID_1_">
	<g id="XMLID_28_">
		<g id="XMLID_29_">
			<path id="XMLID_30_" class="st0" d="M32.755,68.207c-0.423,0-0.846-0.008-1.272-0.025C7.788,67.257,1.532,51.268,1.082,46.748
				c-0.363-1.991,0.114-6.066,4.436-8.206c4.619-2.285,12.268-0.883,13.125-0.715c0.656,0.163,13.239,3.211,23.869-7.308
				c3.161-3.127,4.99-6.4,6.048-9.125c-4.666,2.601-12.285,5.304-22.059,3.38c-0.177-0.039-11.245-2.5-17.756,1.816
				c-2.43,1.61-3.886,3.936-4.45,7.111c-0.209,1.177-1.333,1.957-2.51,1.753c-1.177-0.209-1.961-1.333-1.752-2.51
				c0.773-4.348,2.904-7.703,6.334-9.971c8.072-5.337,20.513-2.552,21.039-2.431c10.166,1.999,17.651-1.814,21.202-4.267
				c1.135-0.783,2.597-0.783,3.727,0.004c1.125,0.785,1.632,2.153,1.289,3.486c-0.918,3.576-3.062,8.879-8.068,13.832
				c-12.428,12.298-27.248,8.612-27.875,8.449c-1.801-0.346-7.435-1.014-10.243,0.376c-2.391,1.184-2.159,3.207-2.088,3.6
				c0.013,0.072,0.03,0.182,0.035,0.255c0.013,0.166,3.139,16.678,26.266,17.58c7.57,0.315,14.782-2.469,20.31-7.786
				c5.951-5.724,9.365-13.733,9.365-21.975c0-12.357-9.233-29.759-29.759-29.759C30.826,4.309,15.444,3.849,6.236,18.472
				c-0.637,1.011-1.973,1.315-2.985,0.678c-1.011-0.637-1.315-1.973-0.678-2.985C13.156-0.642,30.913-0.024,31.667,0.01h0.004
				c20.953,0,33.984,17.693,33.984,34.086c0,9.413-3.897,18.559-10.693,25.095C48.889,65.033,41.045,68.207,32.755,68.207z"/>
		</g>
	</g>
	<g id="XMLID_2_">
		<g id="XMLID_9_">
			<g id="XMLID_25_">
				<g>
					<path class="st0" d="M105.058,3.816c-10.187,0-18.475,8.257-18.538,18.429c-0.001,0.044-0.013,0.086-0.013,0.131v15.046
						c0,1.867,1.514,3.381,3.381,3.381s3.381-1.514,3.381-3.381V22.432c0-0.025,0.007-0.048,0.007-0.073
						c0-6.497,5.286-11.782,11.782-11.782s11.782,5.285,11.782,11.782c0,0.132,0.024,0.258,0.039,0.386
						c-0.015,0.128-0.039,0.254-0.039,0.386v14.29c0,1.867,1.514,3.381,3.381,3.381c1.867,0,3.38-1.514,3.38-3.381v-14.29
						c0-0.132-0.024-0.258-0.039-0.386c0.015-0.128,0.039-0.254,0.039-0.386C123.601,12.134,115.282,3.816,105.058,3.816z"/>
					<path class="st0" d="M193.143,3.816c-10.186,0-18.474,8.256-18.538,18.427c-0.001,0.045-0.013,0.087-0.013,0.132v15.046
						c0,1.867,1.514,3.381,3.381,3.381c1.867,0,3.381-1.514,3.381-3.381V22.433c0-0.025,0.007-0.048,0.007-0.074
						c0-6.497,5.285-11.782,11.782-11.782s11.782,5.285,11.782,11.782c0,0.132,0.024,0.258,0.039,0.386
						c-0.015,0.128-0.039,0.254-0.039,0.386v14.29c0,1.867,1.514,3.381,3.381,3.381s3.381-1.514,3.381-3.381v-14.29
						c0-0.132-0.024-0.258-0.039-0.386c0.015-0.128,0.039-0.254,0.039-0.386C211.687,12.134,203.368,3.816,193.143,3.816z"/>
					<path class="st0" d="M164.359,3.816c-1.867,0-3.381,1.514-3.381,3.381v14.988c0,0.025-0.007,0.049-0.007,0.074
						c0,6.496-5.286,11.782-11.782,11.782s-11.782-5.286-11.782-11.782c0-0.133-0.024-0.258-0.039-0.387
						c0.015-0.128,0.039-0.254,0.039-0.386V7.196c0-1.867-1.514-3.381-3.381-3.381c-1.867,0-3.381,1.514-3.381,3.381v14.289
						c0,0.132,0.024,0.258,0.039,0.386c-0.015,0.128-0.039,0.254-0.039,0.387c0,10.225,8.319,18.543,18.543,18.543
						c10.186,0,18.475-8.256,18.538-18.428c0.002-0.045,0.014-0.087,0.014-0.132V7.196C167.74,5.329,166.226,3.816,164.359,3.816z"
						/>
					<path class="st0" d="M251.23,34.141h-15.163c-6.497,0-11.782-5.285-11.782-11.782s5.285-11.782,11.782-11.782
						s11.782,5.285,11.782,11.782c0,1.867,1.514,3.381,3.381,3.381c1.867,0,3.38-1.514,3.38-3.381
						c0-10.225-8.318-18.543-18.543-18.543c-10.225,0-18.543,8.318-18.543,18.543c0,10.225,8.319,18.543,18.543,18.543h15.163
						c1.867,0,3.38-1.514,3.38-3.381C254.611,35.655,253.097,34.141,251.23,34.141z"/>
				</g>
				<g id="XMLID_26_">
					<path id="XMLID_27_" class="st0" d="M251.23,40.802c-1.867,0-3.381-1.514-3.381-3.381V23.132c0-1.867,1.514-3.381,3.381-3.381
						s3.381,1.514,3.381,3.381v14.289C254.611,39.288,253.097,40.802,251.23,40.802z"/>
				</g>
			</g>
			<g id="XMLID_10_">
				<path id="XMLID_23_" class="st0" d="M87.087,51.254h1.5v7.94l7.635-7.94h1.938l-5.699,5.813l5.946,7.484h-1.881l-5.109-6.44
					l-2.83,2.868v3.572h-1.5V51.254z"/>
				<path id="XMLID_20_" class="st0" d="M124.648,51.159h1.406l6.059,13.392h-1.614l-1.558-3.514h-7.237l-1.577,3.514h-1.539
					L124.648,51.159z M128.352,59.669l-3.02-6.762l-3.039,6.762H128.352z"/>
				<path id="XMLID_18_" class="st0" d="M152.674,62.614l0.931-1.102c1.387,1.254,2.716,1.881,4.559,1.881
					c1.785,0,2.964-0.95,2.964-2.26v-0.038c0-1.235-0.665-1.938-3.457-2.527c-3.058-0.664-4.464-1.652-4.464-3.836v-0.038
					c0-2.089,1.843-3.628,4.369-3.628c1.937,0,3.324,0.55,4.672,1.633l-0.873,1.158c-1.235-1.006-2.47-1.443-3.837-1.443
					c-1.728,0-2.83,0.95-2.83,2.147v0.037c0,1.254,0.683,1.958,3.609,2.585c2.964,0.645,4.332,1.728,4.332,3.761v0.037
					c0,2.281-1.9,3.762-4.54,3.762C155.998,64.741,154.27,64.038,152.674,62.614z"/>
				<path id="XMLID_16_" class="st0" d="M184.785,51.254h1.5v7.94l7.636-7.94h1.937l-5.699,5.813l5.946,7.484h-1.88l-5.11-6.44
					l-2.83,2.868v3.572h-1.5V51.254z"/>
				<path id="XMLID_13_" class="st0" d="M222.346,51.159h1.406l6.059,13.392h-1.614l-1.558-3.514h-7.237l-1.577,3.514h-1.539
					L222.346,51.159z M226.051,59.669l-3.02-6.762l-3.039,6.762H226.051z"/>
				<path id="XMLID_11_" class="st0" d="M251.645,51.254h1.5v13.297h-1.5V51.254z"/>
			</g>
		</g>
		<g id="XMLID_3_">
			<path id="XMLID_4_" class="st0" d="M256.78,6.121V6.096c0-2.397,1.943-4.415,4.389-4.415c2.471,0,4.389,1.994,4.389,4.389v0.027
				c0,2.395-1.943,4.413-4.389,4.413C258.696,10.51,256.78,8.518,256.78,6.121z M265.052,6.096V6.07
				c0-2.144-1.663-3.908-3.883-3.908c-2.195,0-3.885,1.791-3.885,3.935v0.025c0,2.144,1.665,3.908,3.885,3.908
				C263.362,10.029,265.052,8.238,265.052,6.096z M259.453,3.776h2.017c0.984,0,1.715,0.478,1.715,1.411
				c0,0.733-0.427,1.187-1.033,1.364l1.185,1.688h-1.035L261.244,6.7h-0.934v1.538h-0.856V3.776z M261.394,5.994
				c0.581,0,0.908-0.302,0.908-0.731c0-0.478-0.327-0.731-0.908-0.731h-1.084v1.462H261.394z"/>
		</g>
	</g>
</g>
</svg>