<?xml version="1.0" encoding="UTF-8"?><svg id="Layer_2" xmlns="http://www.w3.org/2000/svg" viewBox="0 0 29.78 38.71"><defs><style>.cls-1{fill:#fff;}</style></defs><g id="arte"><path class="cls-1" d="m20.85,38.54c-6.55-1.67-12.57-6.44-16.5-13.07C.22,18.51-1.02,10.77.85,4.1l.07-.25.21-.16c.62-.47,1.21-.88,1.82-1.24C5.16,1.14,7.58.32,10.14.01c.23-.03.48,0,.75.06.81.21,2.02.97,2.1,1.82.24,2.49.52,5.74.54,8.77,0,.58-.56,2.13-1.46,2.42l-3.12,1.02c-.21.07-.33.25-.4.39-.21.43-.19,1.07.04,1.65.69,1.73,1.55,3.48,2.56,5.21,1.03,1.71,2.16,3.3,3.33,4.72.59.72,1.59,1.03,1.96.68l2.4-2.26c.62-.57,1.93-.39,2.39-.28.16.04.3.09.41.15,3.28,1.66,5.17,2.86,7.51,4.73.73.58.86,2.5.23,3.37-1.49,2.09-3.37,3.82-5.58,5.14-.63.37-1.28.7-1.97,1l-.24.11-.75-.18h0Z"/></g></svg>