<?xml version="1.0" encoding="UTF-8"?><svg id="Layer_2" xmlns="http://www.w3.org/2000/svg" viewBox="0 0 40.94 40.99"><defs><style>.cls-1{fill:#39b54a;}</style></defs><g id="arte"><path class="cls-1" d="m35.95,6.84C31.21,1.33,23.81-1.12,16.72.48c-2.13.43-4.17,1.21-6.05,2.3C1.16,8.32-2.06,20.52,3.47,30.03c.08.14.11.3.07.46-.84,2.52-1.7,5.04-2.55,7.56-.33.96-.65,1.92-.99,2.93.18-.05.29-.08.4-.13,3.42-1.09,6.84-2.17,10.25-3.26.31-.11.66-.09.94.08,3.8,1.99,8.14,2.7,12.37,2.02,10.47-1.61,17.88-11.1,16.89-21.65-.33-4.18-2.06-8.13-4.91-11.2Zm-8.09,26.44c-1.65.26-3.34-.14-4.7-1.12-1.65-1.27-3.33-2.52-4.86-3.92-1.69-1.64-3.05-3.6-4.01-5.75-1.45-2.84-2.41-5.89-2.87-9.04-.34-2.17.25-4.38,1.63-6.09.78-.94,1.79-1.67,2.94-2.1.68-.22,3.41-.53,3.6,1.95.13,1.72.24,3.44.37,5.16,0,.6-.33,1.14-.85,1.42-.56.41-1.17.75-1.77,1.11-.48.18-.72.71-.55,1.18,0,0,0,0,0,0,.79,3.92,2.92,7.44,6.03,9.97.34.36.9.38,1.27.06.83-.51,1.65-1.03,2.46-1.55.7-.46,1.02-.47,1.62.1,1.37,1.29,2.72,2.61,4.08,3.91.29.28.37.71.2,1.07-.58,2.09-2.44,3.55-4.6,3.65Z"/></g></svg>